<?xml version="1.0" encoding="UTF-8"?>
<svg width="1200pt" height="1200pt" version="1.1" viewBox="0 0 1200 1200" xmlns="http://www.w3.org/2000/svg">
 <path d="m417.25 437h106.01v106h-106.01z"/>
 <path d="m676.75 437h106.01v106h-106.01z"/>
 <path d="m287.76 280.01h106.01v106h-106.01z"/>
 <path d="m287.76 799.52h106.01v105.98h-106.01z"/>
 <path d="m182 386.51h106.01v413h-106.01z"/>
 <path d="m393.25 174.25h413v106.01h-413z"/>
 <path d="m806.24 280.01h106.01v106h-106.01z"/>
 <path d="m806.24 799.52h106.01v105.98h-106.01z"/>
 <path d="m911.99 386.51h106.01v413h-106.01z"/>
 <path d="m394 905.51h413v106.01h-413z"/>
 <path d="m372.78 675.5h75.301v75.289h-75.301z"/>
 <path d="m447 750.73h305.29v75.277h-305.29z"/>
 <path d="m751.91 675.5h75.301v75.289h-75.301z"/>
</svg>
