<?xml version="1.0" encoding="UTF-8"?>
<svg width="24" height="24" viewBox="0 0 24 24" fill="none" xmlns="http://www.w3.org/2000/svg">
    <path d="M12 3C7.02944 3 3 7.02944 3 12C3 16.9706 7.02944 21 12 21C16.9706 21 21 16.9706 21 12C21 7.02944 16.9706 3 12 3Z" stroke="currentColor" stroke-width="2"/>
    <path d="M12 8C10.3431 8 9 9.34315 9 11C9 11.7403 9.4022 12.3866 10 12.7324V15C10 15.5523 10.4477 16 11 16H13C13.5523 16 14 15.5523 14 15V12.7324C14.5978 12.3866 15 11.7403 15 11C15 9.34315 13.6569 8 12 8Z" stroke="currentColor" stroke-width="2"/>
    <path d="M12 5V3" stroke="currentColor" stroke-width="2" stroke-linecap="round"/>
    <path d="M17 7L19 5" stroke="currentColor" stroke-width="2" stroke-linecap="round"/>
    <path d="M7 7L5 5" stroke="currentColor" stroke-width="2" stroke-linecap="round"/>
</svg> 