<?xml version="1.0" encoding="UTF-8"?>
<svg width="24" height="24" viewBox="0 0 24 24" fill="none" xmlns="http://www.w3.org/2000/svg">
    <path d="M13.5 2C7.97715 2 3.5 6.47715 3.5 12C3.5 17.5228 7.97715 22 13.5 22C19.0228 22 23.5 17.5228 23.5 12C23.5 6.47715 19.0228 2 13.5 2ZM13.5 20C9.08172 20 5.5 16.4183 5.5 12C5.5 7.58172 9.08172 4 13.5 4C17.9183 4 21.5 7.58172 21.5 12C21.5 16.4183 17.9183 20 13.5 20Z" fill="currentColor"/>
    <path d="M14 7H12.5V12.5L16.8536 16.8536L17.9142 15.7929L14 11.8787V7Z" fill="currentColor"/>
    <path d="M6.5 8.5L2.5 12.5L6.5 16.5" stroke="currentColor" stroke-width="2" stroke-linecap="round" stroke-linejoin="round"/>
</svg> 